Coordinates
version=1
nRows=24
nColumns=38
inDegrees=no

Units are S.I. units (second, meters, Newtons, ...)
If the header above contains a line with 'inDegrees', this indicates whether rotational values are in degrees (yes) or radians (no).

endheader
time	pelvis_tilt	pelvis_list	pelvis_rotation	pelvis_tx	pelvis_ty	pelvis_tz	hip_flexion_r	hip_adduction_r	hip_rotation_r	knee_angle_r	ankle_angle_r	subtalar_angle_r	mtp_angle_r	hip_flexion_l	hip_adduction_l	hip_rotation_l	knee_angle_l	ankle_angle_l	subtalar_angle_l	mtp_angle_l	lumbar_extension	lumbar_bending	lumbar_rotation	arm_flex_r	arm_add_r	arm_rot_r	elbow_flex_r	pro_sup_r	wrist_flex_r	wrist_dev_r	arm_flex_l	arm_add_l	arm_rot_l	elbow_flex_l	pro_sup_l	wrist_flex_l	wrist_dev_l
15	-2.97165	1.52523	-1.59385	0.849098	-0.548968	1.07626	-0.0544667	-0.0438765	-0.133287	0.0763098	-0.498336	0	0	-0.0655828	-0.036655	-0.103654	0.293788	-0.197644	0	0	-0.167564	-0.0215566	0.151555	-0.154191	-0.528856	0.211864	1.56025	1.5708	0	0	0.211127	-0.387408	0.66518	1.27808	1.5708	0	0
15.01	-2.88856	1.52061	-1.67831	0.849066	-0.5488	1.07624	-0.00191531	-0.0508766	-0.0417252	0.239303	-0.366336	0	0	-0.0715191	-0.0310406	-0.105938	0.291905	-0.198498	0	0	-0.173836	-0.0247628	0.152616	-0.14455	-0.514365	0.221326	1.50109	1.5708	0	0	0.209328	-0.379469	0.664703	1.23893	1.5708	0	0
15.02	-2.96912	1.50071	-1.63721	0.851579	-0.552352	1.07783	-0.00185514	-0.0492642	0.0171528	0.268271	-0.351768	0	0	-0.0979108	-0.0292863	-0.152369	0.286365	-0.199606	0	0	-0.214063	-0.0206315	0.187965	-0.119977	-0.520616	0.230614	1.45118	1.5708	0	0	0.216398	-0.355776	0.652557	1.19859	1.5708	0	0
15.03	-2.96422	1.49553	-1.64217	0.851857	-0.552241	1.07804	-0.00706499	-0.0498183	0.0175281	0.269915	-0.349221	0	0	-0.103754	-0.0289432	-0.154299	0.286689	-0.199222	0	0	-0.22756	-0.0213163	0.189756	-0.109957	-0.506023	0.23442	1.38795	1.5708	0	0	0.217857	-0.345845	0.649033	1.15822	1.5708	0	0
15.04	-2.95233	1.48892	-1.65379	0.852166	-0.552156	1.07833	-0.0133782	-0.0511872	0.0168374	0.272788	-0.345728	0	0	-0.111271	-0.02784	-0.155767	0.286276	-0.198949	0	0	-0.238865	-0.021906	0.18919	-0.0936992	-0.490265	0.24414	1.31318	1.5708	0	0	0.21984	-0.335345	0.645869	1.11145	1.5708	0	0
15.05	-2.96101	1.48136	-1.64522	0.852485	-0.552188	1.07887	-0.0219662	-0.0507009	0.0163019	0.272313	-0.343897	0	0	-0.12003	-0.0284554	-0.157729	0.285679	-0.198788	0	0	-0.252442	-0.0206497	0.188541	-0.0746588	-0.474687	0.254678	1.2339	1.5708	0	0	0.222665	-0.323697	0.641621	1.06258	1.5708	0	0
15.06	-2.96591	1.47277	-1.64099	0.852889	-0.55229	1.07937	-0.0309467	-0.0506603	0.015603	0.272947	-0.342495	0	0	-0.129947	-0.0287536	-0.160872	0.285116	-0.19845	0	0	-0.267711	-0.0197512	0.187931	-0.0540583	-0.459329	0.26569	1.15232	1.5708	0	0	0.226516	-0.312023	0.637007	1.01271	1.5708	0	0
15.07	-2.97027	1.46343	-1.63744	0.853267	-0.552469	1.07988	-0.0406478	-0.0506683	0.0153724	0.27369	-0.341247	0	0	-0.140689	-0.0289454	-0.164355	0.284567	-0.198043	0	0	-0.285564	-0.0189434	0.187183	-0.0328094	-0.445003	0.276417	1.07242	1.5708	0	0	0.231475	-0.30047	0.631914	0.963217	1.5708	0	0
15.08	-2.9742	1.45253	-1.6345	0.85366	-0.552737	1.08048	-0.0521744	-0.0507256	0.015867	0.274062	-0.339882	0	0	-0.153309	-0.0289709	-0.167945	0.283528	-0.197691	0	0	-0.30658	-0.0181996	0.185765	-0.00973118	-0.431207	0.286841	0.993615	1.5708	0	0	0.237289	-0.288904	0.625439	0.914031	1.5708	0	0
15.09	-2.97844	1.44062	-1.63165	0.854097	-0.553118	1.08115	-0.0645338	-0.0508055	0.0168109	0.274603	-0.33846	0	0	-0.167037	-0.0289546	-0.171978	0.282271	-0.19749	0	0	-0.330558	-0.0175293	0.184427	0.0130738	-0.418671	0.294788	0.918477	1.5708	0	0	0.244192	-0.277551	0.617935	0.865466	1.5708	0	0
15.1	-2.9706	1.44273	-1.58667	0.850559	-0.54833	1.08091	-0.0942344	-0.0455026	-0.0657425	0.230123	-0.357118	0	0	-0.160488	-0.0395323	-0.119892	0.288743	-0.192555	0	0	-0.321217	-0.00720837	0.13359	0.0274552	-0.38352	0.304832	0.816327	1.5708	0	0	0.239877	-0.278899	0.620063	0.807474	1.5708	0	0
15.11	-2.97597	1.4318	-1.58101	0.850809	-0.548653	1.08143	-0.105942	-0.0447241	-0.0671651	0.229903	-0.358361	0	0	-0.17213	-0.0408005	-0.123083	0.289713	-0.19135	0	0	-0.34855	-0.00489882	0.13287	0.0464657	-0.373955	0.305293	0.75205	1.5708	0	0	0.24956	-0.267993	0.611985	0.759882	1.5708	0	0
15.12	-2.98377	1.41494	-1.57196	0.850963	-0.549268	1.08262	-0.125416	-0.0431147	-0.0701956	0.22699	-0.359618	0	0	-0.190481	-0.0426528	-0.12614	0.289342	-0.190225	0	0	-0.38135	-0.00144146	0.129895	0.0697577	-0.364647	0.309665	0.684278	1.5708	0	0	0.259672	-0.256226	0.598907	0.709597	1.5708	0	0
15.13	-2.98884	1.40068	-1.5658	0.851103	-0.549805	1.08349	-0.141995	-0.0417368	-0.0720578	0.224096	-0.361106	0	0	-0.206167	-0.0441148	-0.127856	0.28854	-0.189899	0	0	-0.414193	0.00152391	0.12717	0.0898426	-0.357837	0.310904	0.625943	1.5708	0	0	0.269229	-0.246712	0.585333	0.664508	1.5708	0	0
15.14	-2.99372	1.38395	-1.55966	0.851218	-0.550451	1.08466	-0.161831	-0.03999	-0.0734834	0.220032	-0.362539	0	0	-0.224943	-0.0456988	-0.129567	0.286605	-0.189756	0	0	-0.450031	0.00464637	0.123528	0.11046	-0.35187	0.310896	0.569691	1.5708	0	0	0.278497	-0.237502	0.56771	0.62052	1.5708	0	0
15.15	-2.99751	1.37099	-1.55542	0.85143	-0.55096	1.08545	-0.176577	-0.0386325	-0.0749706	0.217933	-0.364013	0	0	-0.239618	-0.0469608	-0.130742	0.285114	-0.18983	0	0	-0.479739	0.00620638	0.12388	0.124754	-0.347704	0.307932	0.520784	1.5708	0	0	0.289341	-0.228066	0.553697	0.574711	1.5708	0	0
15.16	-3.00086	1.35769	-1.55144	0.851637	-0.551512	1.08632	-0.19162	-0.037243	-0.0770166	0.216089	-0.365295	0	0	-0.254665	-0.0482217	-0.13156	0.283395	-0.189925	0	0	-0.50885	0.00765992	0.124413	0.136889	-0.344186	0.30248	0.47537	1.5708	0	0	0.30026	-0.219255	0.538771	0.52904	1.5708	0	0
15.17	-3.00215	1.34705	-1.54933	0.851742	-0.552039	1.08692	-0.203293	-0.0364948	-0.0795472	0.215343	-0.366049	0	0	-0.266076	-0.0491408	-0.132898	0.283184	-0.189812	0	0	-0.534568	0.00870476	0.12473	0.146203	-0.342026	0.295048	0.434646	1.5708	0	0	0.310322	-0.212141	0.5247	0.485847	1.5708	0	0
15.18	-3.00336	1.3362	-1.547	0.851789	-0.552494	1.0876	-0.215982	-0.035612	-0.0833164	0.213067	-0.367311	0	0	-0.278051	-0.0500529	-0.133466	0.282266	-0.189814	0	0	-0.55896	0.00975181	0.124898	0.15349	-0.340511	0.287892	0.397273	1.5708	0	0	0.319448	-0.205302	0.507389	0.443663	1.5708	0	0
15.19	-3.00519	1.32672	-1.54469	0.852	-0.552879	1.08819	-0.22769	-0.0343642	-0.0855701	0.209131	-0.369398	0	0	-0.288514	-0.0507767	-0.132733	0.281591	-0.189683	0	0	-0.580135	0.0102972	0.125318	0.158539	-0.339611	0.285186	0.363849	1.5708	0	0	0.327378	-0.199702	0.488594	0.403434	1.5708	0	0
15.2	-3.02	1.31423	-1.52962	0.853097	-0.553157	1.08929	-0.295914	-0.0240888	-0.186435	0.0505716	-0.511946	0	0	-0.302427	-0.0575863	-0.136679	0.280521	-0.190731	0	0	-0.60164	0.0128608	0.125887	0.163843	-0.337458	0.285341	0.332601	1.5708	0	0	0.332972	-0.194479	0.45702	0.365429	1.5708	0	0
15.21	-3.00687	1.31141	-1.54193	0.852497	-0.55366	1.08937	-0.247097	-0.0319848	-0.0864156	0.200663	-0.382521	0	0	-0.304724	-0.0525083	-0.13415	0.280724	-0.191167	0	0	-0.612642	0.0104268	0.123098	0.166143	-0.338766	0.283113	0.308113	1.5708	0	0	0.339492	-0.18979	0.441981	0.327955	1.5708	0	0
15.22	-3.00462	1.30963	-1.54299	0.852681	-0.553725	1.08944	-0.249144	-0.0318954	-0.0870963	0.201051	-0.379756	0	0	-0.30586	-0.0526546	-0.133032	0.28202	-0.19088	0	0	-0.619607	0.00925809	0.122177	0.165463	-0.339242	0.282113	0.288795	1.5708	0	0	0.345491	-0.188642	0.434174	0.293517	1.5708	0	0
15.23	-3.00208	1.30742	-1.54391	0.852813	-0.553692	1.0896	-0.252369	-0.0317113	-0.0890881	0.200132	-0.377861	0	0	-0.307912	-0.0527831	-0.131099	0.282385	-0.190695	0	0	-0.624264	0.00815676	0.120939	0.164606	-0.33959	0.285581	0.270154	1.5708	0	0	0.351495	-0.186949	0.426297	0.258191	1.5708	0	0
